<svg width="32" height="32" viewBox="0 0 32 32" fill="none" xmlns="http://www.w3.org/2000/svg">
<rect width="32" height="32" rx="16" fill="#181B1F"/>
<g clip-path="url(#clip0_167_8794)">
<path d="M4.94276 15.7401C6.04347 15.8441 5.94876 16.1687 6.73206 16.9218C7.77647 17.93 8.80039 17.9845 9.52738 17.4296C9.08709 17.2983 8.58281 16.9465 8.29867 16.6889C7.51025 15.9705 7.28754 15.0192 4.95555 15.6707C4.85316 15.7005 4.8762 15.7327 4.94276 15.7401Z" fill="white"/>
<path d="M28.8258 14.2306C25.2703 12.6947 21.6353 13.5643 18.712 16.0911C15.8655 18.5535 13.9175 21.452 10.0957 21.5164C13.0216 22.4998 18.7888 22.1307 21.9527 19.0688C22.0372 18.9821 21.9707 18.992 21.9195 19.0217C20.0918 20.0944 17.1941 20.6221 15.9449 20.2282C19.2598 18.1547 21.9041 14.523 28.813 14.3694C29.069 14.3421 29.0588 14.3297 28.8284 14.2306H28.8258Z" fill="white"/>
<path d="M9.82706 19.8786C9.17943 19.8885 8.51388 19.5367 8.11967 19.279C7.54627 18.9075 7.13926 18.3699 6.69385 17.9463C5.96431 17.2526 4.74584 16.7373 3.07684 17.3839C2.98725 17.4186 2.96677 17.4607 3.05636 17.4657C4.58713 17.54 4.53593 17.7208 5.82096 19.1032C6.68873 20.0346 9.00536 20.2997 9.8245 19.8786H9.82706Z" fill="white"/>
<path d="M25.7695 12.4804C25.2268 12.1682 23.1892 11.1575 21.2053 11.3582C20.1763 11.4622 19.2804 11.7273 18.3793 12.3491C17.9544 12.6142 17.6626 12.8148 17.4015 13.0006C17.381 13.0155 17.2837 13.0873 17.253 13.1071C16.439 13.6918 15.7273 13.9791 15.3152 14.1129C15.1693 14.155 15.0388 14.1897 14.9364 14.2145C16.2675 12.5646 17.7035 10.9866 19.4749 10.3177C19.5312 10.2954 19.5287 10.2285 19.4724 10.2137C17.3247 9.69343 15.0695 9.98822 13.2955 12.6265C11.2733 15.634 10.0676 19.2161 7.27485 17.9205C9.00016 19.5109 11.1299 18.8222 12.9628 16.6744C13.2239 16.3697 13.4824 16.0526 13.7409 15.7281L14.0456 15.3441C14.9184 15.2822 15.561 15.0791 15.927 14.9279L15.328 15.7281C13.3211 18.3887 10.6333 21.5795 6.64258 20.0039C11.2477 22.9692 14.6957 18.7009 16.4083 17.1451C18.5252 15.2203 20.6575 12.7529 25.7746 12.6166C25.8898 12.6142 25.9743 12.5993 25.7695 12.4829V12.4804Z" fill="white"/>
</g>
<defs>
<clipPath id="clip0_167_8794">
<rect width="26" height="12" fill="white" transform="translate(3 10)"/>
</clipPath>
</defs>
</svg>
